<svg width="257" height="54" fill="none" xmlns="http://www.w3.org/2000/svg"><g filter="url(#filter0_d)"><path d="M7 19c0-6.627 5.373-12 12-12h219c6.627 0 12 5.373 12 12v16c0 6.627-5.373 12-12 12H19c-6.627 0-12-5.373-12-12V19z" fill="#fff"/><path d="M7 19c0-6.627 5.373-12 12-12h219c6.627 0 12 5.373 12 12v16c0 6.627-5.373 12-12 12H19c-6.627 0-12-5.373-12-12V19z" stroke="#E4E4E4" stroke-width=".5"/></g><defs><filter id="filter0_d" x=".75" y=".75" width="255.5" height="52.5" filterUnits="userSpaceOnUse" color-interpolation-filters="sRGB"><feFlood flood-opacity="0" result="BackgroundImageFix"/><feColorMatrix in="SourceAlpha" values="0 0 0 0 0 0 0 0 0 0 0 0 0 0 0 0 0 0 127 0"/><feOffset/><feGaussianBlur stdDeviation="3"/><feColorMatrix values="0 0 0 0 0 0 0 0 0 0 0 0 0 0 0 0 0 0 0.2 0"/><feBlend in2="BackgroundImageFix" result="effect1_dropShadow"/><feBlend in="SourceGraphic" in2="effect1_dropShadow" result="shape"/></filter></defs></svg>