<svg width="35" height="7" fill="none" xmlns="http://www.w3.org/2000/svg"><path d="M.392 3.568c0-.33.021-.656.064-.976.048-.325.128-.63.24-.912.117-.288.277-.541.48-.76.203-.219.459-.39.768-.512C2.259.28 2.637.216 3.08.216c.112 0 .237.005.376.016.139.01.256.027.352.048v.712A2.282 2.282 0 003.12.896c-.368 0-.672.056-.912.168a1.4 1.4 0 00-.568.464c-.139.197-.24.427-.304.688a4.552 4.552 0 00-.12.84h.048c.117-.192.283-.352.496-.48.213-.128.488-.192.824-.192.496 0 .893.155 1.192.464.304.304.456.736.456 1.296 0 .603-.168 1.077-.504 1.424-.33.341-.781.512-1.352.512a1.93 1.93 0 01-1.008-.272c-.299-.181-.536-.456-.712-.824C.48 4.611.392 4.139.392 3.568zm1.976 1.808a.992.992 0 00.744-.296c.192-.203.288-.515.288-.936 0-.336-.085-.603-.256-.8-.165-.197-.416-.296-.752-.296-.23 0-.43.048-.6.144-.17.096-.304.219-.4.368a.835.835 0 00-.144.456c0 .219.043.432.128.64.085.208.21.381.376.52.165.133.37.2.616.2zm6.426-2.24c0 .619-.067 1.147-.2 1.584-.128.437-.333.773-.616 1.008s-.656.352-1.12.352c-.656 0-1.141-.259-1.456-.776-.31-.523-.464-1.245-.464-2.168 0-.613.061-1.139.184-1.576.128-.443.333-.779.616-1.008C6.021.317 6.394.2 6.858.2c.65 0 1.136.259 1.456.776.32.512.48 1.232.48 2.16zm-3.008 0c0 .747.08 1.307.24 1.68.16.368.437.552.832.552.39 0 .667-.184.832-.552.165-.368.248-.928.248-1.68 0-.741-.083-1.296-.248-1.664-.165-.373-.443-.56-.832-.56-.395 0-.672.187-.832.56-.16.368-.24.923-.24 1.664zm5.744 1.08v-.72h1.984v.72H11.53zM18.867 6h-.84V2.208a13.444 13.444 0 01.032-1.024c-.07.07-.142.139-.216.208l-.256.216-.624.504-.432-.544 1.632-1.28h.704V6zm5.818-2.864c0 .619-.067 1.147-.2 1.584-.128.437-.334.773-.616 1.008-.283.235-.656.352-1.12.352-.656 0-1.142-.259-1.456-.776-.31-.523-.464-1.245-.464-2.168 0-.613.061-1.139.184-1.576.128-.443.333-.779.616-1.008.282-.235.656-.352 1.12-.352.65 0 1.136.259 1.456.776.32.512.48 1.232.48 2.16zm-3.008 0c0 .747.08 1.307.24 1.68.16.368.437.552.832.552.39 0 .666-.184.832-.552.165-.368.248-.928.248-1.68 0-.741-.083-1.296-.248-1.664-.166-.373-.443-.56-.832-.56-.395 0-.672.187-.832.56-.16.368-.24.923-.24 1.664zm7.586 0c0 .619-.067 1.147-.2 1.584-.128.437-.333.773-.616 1.008s-.656.352-1.12.352c-.656 0-1.142-.259-1.456-.776-.31-.523-.464-1.245-.464-2.168 0-.613.061-1.139.184-1.576.128-.443.333-.779.616-1.008.282-.235.656-.352 1.12-.352.65 0 1.136.259 1.456.776.32.512.48 1.232.48 2.16zm-3.008 0c0 .747.08 1.307.24 1.68.16.368.437.552.832.552.39 0 .666-.184.832-.552.165-.368.248-.928.248-1.68 0-.741-.083-1.296-.248-1.664-.165-.373-.443-.56-.832-.56-.395 0-.672.187-.832.56-.16.368-.24.923-.24 1.664zm4.546-1.48c.308 0 .54.118.696.354.16.232.24.56.24.984 0 .424-.076.756-.228.996-.148.236-.384.354-.708.354a.763.763 0 01-.678-.354c-.156-.24-.234-.572-.234-.996 0-.424.072-.752.216-.984.148-.236.38-.354.696-.354zm2.832.06L31.257 6h-.534l2.376-4.284h.534zm-2.832.384c-.26 0-.39.298-.39.894 0 .604.13.906.39.906.276 0 .414-.302.414-.906 0-.596-.138-.894-.414-.894zm2.736 1.272c.304 0 .536.118.696.354.16.232.24.56.24.984 0 .42-.076.75-.228.99-.148.24-.384.36-.708.36-.3 0-.528-.12-.684-.36-.156-.24-.234-.57-.234-.99 0-.424.072-.752.216-.984.148-.236.382-.354.702-.354zm0 .444c-.26 0-.39.298-.39.894 0 .6.13.9.39.9.272 0 .408-.3.408-.9 0-.596-.136-.894-.408-.894z" fill="#000"/></svg>