<svg width="26" height="7" fill="none" xmlns="http://www.w3.org/2000/svg"><path d="M4.216 3.136c0 .619-.067 1.147-.2 1.584-.128.437-.333.773-.616 1.008s-.656.352-1.12.352c-.656 0-1.141-.259-1.456-.776C.514 4.781.36 4.059.36 3.136c0-.613.061-1.139.184-1.576.128-.443.333-.779.616-1.008C1.443.317 1.816.2 2.28.2c.65 0 1.136.259 1.456.776.32.512.48 1.232.48 2.16zm-3.008 0c0 .747.08 1.307.24 1.68.16.368.437.552.832.552.39 0 .667-.184.832-.552.165-.368.248-.928.248-1.68 0-.741-.083-1.296-.248-1.664-.165-.373-.443-.56-.832-.56-.395 0-.672.187-.832.56-.16.368-.24.923-.24 1.664zm5.744 1.08v-.72h1.984v.72H6.952zm8.345-2.608c0 .39-.113.699-.337.928a1.61 1.61 0 01-.856.456v.032c.454.053.795.197 1.025.432.229.23.344.533.344.912 0 .33-.08.627-.24.888-.155.256-.398.459-.729.608-.325.144-.743.216-1.255.216-.305 0-.587-.024-.849-.072a2.962 2.962 0 01-.744-.24V5a3.524 3.524 0 001.56.376c.486 0 .835-.09 1.049-.272.213-.187.32-.445.32-.776 0-.32-.129-.555-.385-.704-.255-.15-.64-.224-1.151-.224h-.52v-.696h.527c.486 0 .838-.09 1.057-.272a.88.88 0 00.328-.712c0-.256-.086-.453-.257-.592-.165-.144-.405-.216-.72-.216-.293 0-.549.045-.768.136-.213.09-.413.2-.6.328l-.415-.584a2.92 2.92 0 01.76-.408 2.897 2.897 0 011.047-.176c.593 0 1.04.13 1.345.392.309.256.463.592.463 1.008zm4.81 1.528c0 .619-.067 1.147-.2 1.584-.128.437-.334.773-.616 1.008-.283.235-.656.352-1.12.352-.656 0-1.142-.259-1.456-.776-.31-.523-.464-1.245-.464-2.168 0-.613.061-1.139.184-1.576.128-.443.333-.779.616-1.008.282-.235.656-.352 1.12-.352.65 0 1.136.259 1.456.776.32.512.48 1.232.48 2.16zm-3.008 0c0 .747.08 1.307.24 1.68.16.368.437.552.832.552.389 0 .666-.184.832-.552.165-.368.248-.928.248-1.68 0-.741-.083-1.296-.248-1.664-.166-.373-.443-.56-.832-.56-.395 0-.672.187-.832.56-.16.368-.24.923-.24 1.664zm4.546-1.48c.308 0 .54.118.696.354.16.232.24.56.24.984 0 .424-.076.756-.228.996-.148.236-.384.354-.708.354a.763.763 0 01-.678-.354c-.156-.24-.234-.572-.234-.996 0-.424.072-.752.216-.984.148-.236.38-.354.696-.354zm2.832.06L22.1 6h-.534l2.376-4.284h.534zm-2.832.384c-.26 0-.39.298-.39.894 0 .604.13.906.39.906.276 0 .414-.302.414-.906 0-.596-.138-.894-.414-.894zm2.736 1.272c.304 0 .536.118.696.354.16.232.24.56.24.984 0 .42-.076.75-.228.99-.148.24-.384.36-.708.36-.3 0-.528-.12-.684-.36-.156-.24-.234-.57-.234-.99 0-.424.072-.752.216-.984.148-.236.382-.354.702-.354zm0 .444c-.26 0-.39.298-.39.894 0 .6.13.9.39.9.272 0 .408-.3.408-.9 0-.596-.136-.894-.408-.894z" fill="#000"/></svg>