<svg width="54" height="54" viewBox="0 0 54 54" fill="none" xmlns="http://www.w3.org/2000/svg">
<g filter="url(#filter0_d)">
<path d="M7 19C7 12.3726 12.3726 7 19 7H35C41.6274 7 47 12.3726 47 19V35C47 41.6274 41.6274 47 35 47H19C12.3726 47 7 41.6274 7 35V19Z" fill="white"/>
<path d="M7 19C7 12.3726 12.3726 7 19 7H35C41.6274 7 47 12.3726 47 19V35C47 41.6274 41.6274 47 35 47H19C12.3726 47 7 41.6274 7 35V19Z" stroke="#E4E4E4" stroke-width="0.5"/>
</g>
<defs>
<filter id="filter0_d" x="0.75" y="0.75" width="52.5" height="52.5" filterUnits="userSpaceOnUse" color-interpolation-filters="sRGB">
<feFlood flood-opacity="0" result="BackgroundImageFix"/>
<feColorMatrix in="SourceAlpha" type="matrix" values="0 0 0 0 0 0 0 0 0 0 0 0 0 0 0 0 0 0 127 0"/>
<feOffset/>
<feGaussianBlur stdDeviation="3"/>
<feColorMatrix type="matrix" values="0 0 0 0 0 0 0 0 0 0 0 0 0 0 0 0 0 0 0.2 0"/>
<feBlend mode="normal" in2="BackgroundImageFix" result="effect1_dropShadow"/>
<feBlend mode="normal" in="SourceGraphic" in2="effect1_dropShadow" result="shape"/>
</filter>
</defs>
</svg>
