<svg width="52" height="52" viewBox="0 0 52 52" fill="none" xmlns="http://www.w3.org/2000/svg">
<g filter="url(#filter0_d)">
<path d="M6 16C6 9.37258 11.3726 4 18 4H34C40.6274 4 46 9.37258 46 16V32C46 38.6274 40.6274 44 34 44H18C11.3726 44 6 38.6274 6 32V16Z" fill="white"/>
</g>
<path fill-rule="evenodd" clip-rule="evenodd" d="M26.8333 16.5499C30.3083 16.9333 33.0666 19.6916 33.4499 23.1666H35.1666V24.8333H33.4499C33.0666 28.3083 30.3083 31.0666 26.8333 31.4499V33.1666H25.1666V31.4499C21.6916 31.0666 18.9333 28.3083 18.5499 24.8333H16.8333V23.1666H18.5499C18.9333 19.6916 21.6916 16.9333 25.1666 16.5499V14.8333H26.8333V16.5499ZM20.1666 23.9999C20.1666 27.2249 22.7749 29.8333 25.9999 29.8333C29.2249 29.8333 31.8333 27.2249 31.8333 23.9999C31.8333 20.7749 29.2249 18.1666 25.9999 18.1666C22.7749 18.1666 20.1666 20.7749 20.1666 23.9999Z" fill="black"/>
<defs>
<filter id="filter0_d" x="0" y="0" width="52" height="52" filterUnits="userSpaceOnUse" color-interpolation-filters="sRGB">
<feFlood flood-opacity="0" result="BackgroundImageFix"/>
<feColorMatrix in="SourceAlpha" type="matrix" values="0 0 0 0 0 0 0 0 0 0 0 0 0 0 0 0 0 0 127 0"/>
<feOffset dy="2"/>
<feGaussianBlur stdDeviation="3"/>
<feColorMatrix type="matrix" values="0 0 0 0 0 0 0 0 0 0 0 0 0 0 0 0 0 0 0.3 0"/>
<feBlend mode="normal" in2="BackgroundImageFix" result="effect1_dropShadow"/>
<feBlend mode="normal" in="SourceGraphic" in2="effect1_dropShadow" result="shape"/>
</filter>
</defs>
</svg>
