<svg width="52" height="52" viewBox="0 0 52 52" fill="none" xmlns="http://www.w3.org/2000/svg">
<g filter="url(#filter0_d)">
<path d="M6 16C6 9.37258 11.3726 4 18 4H33.0805C39.7079 4 45.0805 9.37258 45.0805 16V32C45.0805 38.6274 39.7079 44 33.0805 44H18C11.3726 44 6 38.6274 6 32V16Z" fill="white"/>
<path d="M21.603 18C22.487 18 23.1528 18.322 23.6003 18.9659C24.0587 19.5989 24.2879 20.4939 24.2879 21.6508C24.2879 22.8076 24.0696 23.7135 23.633 24.3683C23.2074 25.0123 22.5307 25.3342 21.603 25.3342C20.7517 25.3342 20.1023 25.0123 19.6548 24.3683C19.2183 23.7135 19 22.8076 19 21.6508C19 20.4939 19.2074 19.5989 19.6221 18.9659C20.0368 18.322 20.6971 18 21.603 18ZM29.6085 18.1637L23.1255 29.8527H21.4557L27.9386 18.1637H29.6085ZM21.6194 19.4243C21.0082 19.4243 20.7026 20.1719 20.7026 21.6671C20.7026 23.1623 21.0082 23.91 21.6194 23.91C22.2524 23.91 22.5689 23.1623 22.5689 21.6671C22.5689 20.1719 22.2524 19.4243 21.6194 19.4243ZM29.412 22.6658C30.2742 22.6658 30.9345 22.9877 31.3929 23.6317C31.8513 24.2756 32.0805 25.1705 32.0805 26.3165C32.0805 27.4734 31.8622 28.3793 31.4256 29.0341C31 29.678 30.3288 30 29.412 30C28.5498 30 27.895 29.678 27.4475 29.0341C27.0109 28.3793 26.7926 27.4734 26.7926 26.3165C26.7926 25.1705 27 24.2756 27.4147 23.6317C27.8404 22.9877 28.5061 22.6658 29.412 22.6658ZM29.412 24.1064C28.8008 24.1064 28.4952 24.8486 28.4952 26.3329C28.4952 27.839 28.8008 28.5921 29.412 28.5921C30.0559 28.5921 30.3779 27.839 30.3779 26.3329C30.3779 24.8486 30.0559 24.1064 29.412 24.1064Z" fill="black"/>
</g>
<defs>
<filter id="filter0_d" x="0" y="0" width="51.0805" height="52" filterUnits="userSpaceOnUse" color-interpolation-filters="sRGB">
<feFlood flood-opacity="0" result="BackgroundImageFix"/>
<feColorMatrix in="SourceAlpha" type="matrix" values="0 0 0 0 0 0 0 0 0 0 0 0 0 0 0 0 0 0 127 0"/>
<feOffset dy="2"/>
<feGaussianBlur stdDeviation="3"/>
<feColorMatrix type="matrix" values="0 0 0 0 0 0 0 0 0 0 0 0 0 0 0 0 0 0 0.3 0"/>
<feBlend mode="normal" in2="BackgroundImageFix" result="effect1_dropShadow"/>
<feBlend mode="normal" in="SourceGraphic" in2="effect1_dropShadow" result="shape"/>
</filter>
</defs>
</svg>
