<svg width="40" height="40" fill="none" xmlns="http://www.w3.org/2000/svg"><circle cx="20" cy="20" r="20" fill="#0089FF"/><path d="M12.557 17.795v8.744s.258 2.16 3.293 2.16h7.491s2.452-.317 2.452-2.003v-8.904H12.557v.003zM26.572 18.587s3.114-.413 3.114 2.942c0 2.755-3.114 2.489-3.114 2.489M11 31.505h16.35M17.229 10.042s-1.554-.422-1.554 1.414c0 1.835 1.185 1.364 1.185 2.647 0 1.284-1.188 1.351-1.188 1.351M20.343 10.042s-1.553-.422-1.553 1.414c0 1.835 1.184 1.364 1.184 2.647 0 1.284-1.188 1.351-1.188 1.351M23.457 10.042s-1.553-.422-1.553 1.414c0 1.835 1.184 1.364 1.184 2.647 0 1.284-1.188 1.351-1.188 1.351" stroke="#fff" stroke-width="1.2" stroke-miterlimit="10"/></svg>