<svg width="24" height="24" fill="none" xmlns="http://www.w3.org/2000/svg"><path d="M6.249 9.25v7.01s.207 1.732 2.64 1.732h6.005s1.966-.255 1.966-1.606v-7.14H6.25v.003zM17.484 9.884s2.497-.33 2.497 2.36c0 2.208-2.497 1.995-2.497 1.995M5 20.241h13.109M9.994 3.034s-1.246-.339-1.246 1.133c0 1.471.95 1.094.95 2.123 0 1.029-.953 1.083-.953 1.083M12.49 3.034s-1.245-.339-1.245 1.133c0 1.471.95 1.094.95 2.123 0 1.029-.953 1.083-.953 1.083M14.988 3.034s-1.246-.339-1.246 1.133c0 1.471.95 1.094.95 2.123 0 1.029-.953 1.083-.953 1.083" stroke="#fff" stroke-miterlimit="10"/></svg>