<svg width="20" height="20" fill="none" xmlns="http://www.w3.org/2000/svg"><g opacity=".5"><path fill-rule="evenodd" clip-rule="evenodd" d="M14.333 13.167l3.75 3.75a.805.805 0 010 1.166.9.9 0 01-.583.25.9.9 0 01-.583-.25l-3.75-3.75c-1.25.917-2.75 1.5-4.417 1.5A7.077 7.077 0 011.667 8.75 7.077 7.077 0 018.75 1.667a7.077 7.077 0 017.083 7.083c0 1.667-.583 3.25-1.5 4.417zM8.75 3.333c-3 0-5.417 2.417-5.417 5.417s2.417 5.417 5.417 5.417a5.35 5.35 0 003.833-1.584c1-1 1.584-2.333 1.584-3.833 0-3-2.417-5.417-5.417-5.417z" fill="#000"/><mask id="a" maskUnits="userSpaceOnUse" x="1" y="1" width="18" height="18"><path fill-rule="evenodd" clip-rule="evenodd" d="M14.333 13.167l3.75 3.75a.805.805 0 010 1.166.9.9 0 01-.583.25.9.9 0 01-.583-.25l-3.75-3.75c-1.25.917-2.75 1.5-4.417 1.5A7.077 7.077 0 011.667 8.75 7.077 7.077 0 018.75 1.667a7.077 7.077 0 017.083 7.083c0 1.667-.583 3.25-1.5 4.417zM8.75 3.333c-3 0-5.417 2.417-5.417 5.417s2.417 5.417 5.417 5.417a5.35 5.35 0 003.833-1.584c1-1 1.584-2.333 1.584-3.833 0-3-2.417-5.417-5.417-5.417z" fill="#fff"/></mask><g mask="url(#a)"><path fill="#333" d="M0 0h20v20H0z"/></g></g></svg>