<svg width="52" height="52" viewBox="0 0 52 52" fill="none" xmlns="http://www.w3.org/2000/svg">
<g filter="url(#filter0_d)">
<path d="M6 16C6 9.37258 11.3726 4 18 4H34C40.6274 4 46 9.37258 46 16V32C46 38.6274 40.6274 44 34 44H18C11.3726 44 6 38.6274 6 32V16Z" fill="white"/>
</g>
<path d="M25.33 15.4H22.25V14.61H20.93V15.4H17.83V16.39H25.33V15.4ZM19.76 21.42H18.44V23.7H24.83V22.68H19.76V21.42ZM19.86 18.05C19.86 17.71 20.4 17.57 21.59 17.57C22.79 17.57 23.33 17.71 23.33 18.05C23.33 18.38 22.79 18.53 21.59 18.53C20.4 18.53 19.86 18.38 19.86 18.05ZM22.25 19.96V19.43C23.81 19.32 24.68 18.85 24.68 18.05C24.68 17.14 23.55 16.65 21.59 16.65C19.64 16.65 18.51 17.14 18.51 18.05C18.51 18.85 19.38 19.32 20.93 19.43V19.96H17.42V20.98H25.76V19.96H22.25ZM32.1092 18.59C30.6792 18.18 30.0492 17.18 29.9992 16.2H31.7992V15.15H26.8292V16.2H28.6592C28.6192 17.26 27.9592 18.34 26.4792 18.79L27.1092 19.81C28.1992 19.48 28.9392 18.8 29.3492 17.92C29.7692 18.71 30.4792 19.32 31.4992 19.62L32.1092 18.59ZM32.5692 22.71H29.1692V21.93H32.5692V22.71ZM32.5692 20.91H29.1692V20.1H27.8692V23.75H33.8792V20.1H32.5692V20.91ZM35.0992 16.6H33.8792V14.66H32.5592V19.74H33.8792V17.69H35.0992V16.6ZM22.43 28.87V29.94H23.81V32.13H25.13V26.65H23.81V28.87H22.43ZM22.98 30.85C21.58 30.39 20.94 29.31 20.9 28.26H22.69V27.2H17.74V28.26H19.55C19.51 29.41 18.84 30.58 17.38 31.09L18.05 32.13C19.12 31.77 19.85 31.02 20.25 30.09C20.65 30.9 21.34 31.55 22.34 31.88L22.98 30.85ZM22.02 34.87C20.81 34.87 20.18 34.62 20.18 34.1C20.18 33.58 20.81 33.33 22.02 33.33C23.22 33.33 23.85 33.58 23.85 34.1C23.85 34.62 23.22 34.87 22.02 34.87ZM22.02 32.33C20.06 32.33 18.86 32.98 18.86 34.1C18.86 35.22 20.06 35.87 22.02 35.87C23.97 35.87 25.17 35.22 25.17 34.1C25.17 32.98 23.97 32.33 22.02 32.33ZM31.4492 33.74V31.82H34.0792V30.76H28.9292V28.34H34.0092V27.28H27.5992V31.82H30.1292V33.74H26.6292V34.82H34.9692V33.74H31.4492Z" fill="black"/>
<defs>
<filter id="filter0_d" x="0" y="0" width="52" height="52" filterUnits="userSpaceOnUse" color-interpolation-filters="sRGB">
<feFlood flood-opacity="0" result="BackgroundImageFix"/>
<feColorMatrix in="SourceAlpha" type="matrix" values="0 0 0 0 0 0 0 0 0 0 0 0 0 0 0 0 0 0 127 0"/>
<feOffset dy="2"/>
<feGaussianBlur stdDeviation="3"/>
<feColorMatrix type="matrix" values="0 0 0 0 0 0 0 0 0 0 0 0 0 0 0 0 0 0 0.3 0"/>
<feBlend mode="normal" in2="BackgroundImageFix" result="effect1_dropShadow"/>
<feBlend mode="normal" in="SourceGraphic" in2="effect1_dropShadow" result="shape"/>
</filter>
</defs>
</svg>
